PathFileType	4	(X/Y/Z)	C:\Users\WrightLab\Desktop\Jo\P4V129.trc
DataRate	CameraRate	NumFrames	NumMarkers	Units	OrigDataRate	OrigDataStartFrame	OrigNumFrames
100.00	100.00	       8	19	mm	100.00	229	       456
Frame#	Time	Headset_Front			Headset_Back			Headset_Left			Headset_Right			Left_Shoulder			Right_Shoulder			Sternum			C7			Left Elbow			Right Elbow			Left Wrist			Right Wrist			Left ASIS			Right ASIS			S2			Left Knee			Right Knee			Left Ankle			Right Ankle			
		X1	Y1	Z1	X2	Y2	Z2	X3	Y3	Z3	X4	Y4	Z4	X5	Y5	Z5	X6	Y6	Z6	X7	Y7	Z7	X8	Y8	Z8	X9	Y9	Z9	X10	Y10	Z10	X11	Y11	Z11	X12	Y12	Z12	X13	Y13	Z13	X14	Y14	Z14	X15	Y15	Z15	X16	Y16	Z16	X17	Y17	Z17	X18	Y18	Z18	X19	Y19	Z19	

229	2.280										-317.58432	1067.01929	343.52936	-525.65430	1538.00049	326.72763	-264.89087	1555.72009	216.52588	-442.47025	1478.11194	173.08772	-366.53357	1577.45984	314.49484	-692.98511	1206.06677	391.00909	-400.57700	1620.75244	22.63887	-804.37775	971.05884	213.45921	-55.73676	1518.06140	-40.76919	-545.21771	1038.66577	284.26212	-278.06131	1040.07385	86.26159				-505.23190	552.24866	342.16367	-327.53415	593.68616	-21.72923	-386.55923	66.31564	430.77612	-331.65775	116.57439	181.83650	
230	2.290										-323.42850	1065.79407	336.60370	-530.86304	1536.70117	316.65591	-268.92130	1553.87842	210.43837	-446.51447	1476.81946	164.02611	-372.17691	1576.71021	306.24432	-699.35120	1205.26965	378.72058	-403.91241	1619.72290	13.92028	-809.90778	972.54352	197.75879	-58.68252	1516.54773	-46.67357	-550.30536	1037.40991	275.34363	-282.44397	1038.34424	78.99225				-507.56317	552.23615	338.69748	-332.52148	591.78491	-27.08192	-386.50034	66.39489	430.71503	-347.80389	106.53629	155.29428	
231	2.300										-328.89700	1064.64893	329.64716	-536.27118	1535.44702	307.07541	-273.63995	1553.23267	199.41374	-450.97656	1475.41980	155.49713	-376.45627	1575.30469	297.35934	-706.42249	1204.75659	366.68109				-815.07117	973.15936	182.52321	-61.51970	1514.67590	-53.30629	-555.03546	1036.45886	267.01361	-285.48196	1036.46448	71.98478				-509.80106	551.88684	334.84677	-336.91403	589.17969	-31.60913	-386.47659	66.46307	430.61444	-364.07794	96.15435	128.94257	
232	2.310							-410.32803	1617.13586	-4.21429	-333.73547	1063.79187	322.06717	-540.84033	1533.96521	297.46237	-278.02023	1551.35718	193.70294	-454.92926	1473.80530	146.36110	-381.19217	1574.06372	288.71286	-712.65094	1203.76880	354.54886				-819.63666	973.71545	167.37936	-64.16946	1513.08923	-59.00291	-560.07373	1034.92627	257.41489	-289.08496	1034.05029	65.41281				-512.61029	551.82556	330.93567	-341.68112	586.42432	-35.59370	-386.34464	66.60291	430.37048	-379.33020	87.74861	102.42500	
233	2.320							-413.55264	1615.51172	-12.75311	-338.68866	1063.13501	313.65820	-545.91815	1532.65576	287.37808	-282.00949	1550.25928	183.29567	-458.65701	1472.32495	137.04807	-385.39841	1572.64063	279.64740	-718.47882	1202.37305	341.98764				-824.30273	974.10284	152.26390	-66.21861	1510.89551	-65.65439	-564.49829	1033.15320	249.33406	-292.43069	1032.04236	57.77908				-514.34662	550.54614	326.43558	-346.18301	582.67267	-39.84893	-386.37466	67.15542	429.91055	-394.09988	79.94628	75.90648	
234	2.330							-416.66501	1613.83374	-21.59882	-344.39810	1061.48682	305.81601	-550.36798	1530.97510	277.67657	-285.97290	1548.12744	178.03773	-462.39694	1470.64832	127.43924	-390.63870	1571.43860	271.13876	-724.01947	1201.01575	329.67245				-828.53021	974.33667	137.56418	-68.46774	1509.56372	-72.88091	-569.32654	1031.51880	239.74275	-296.11108	1030.09363	49.89798				-517.46460	550.44574	321.83417	-349.93063	578.93671	-43.66025	-386.48291	67.45287	430.14014	-407.91229	73.32296	49.53151	
235	2.340							-419.76065	1612.15076	-30.92327	-350.48099	1060.43311	297.79535	-555.04633	1529.40076	267.83624	-290.07733	1546.82629	168.43607	-466.32776	1468.92273	118.37357	-394.87979	1569.63904	262.13901	-729.50690	1199.53259	317.06958				-832.10400	974.59448	122.18759	-71.76234	1507.36768	-79.52620	-574.09454	1030.27759	229.19531	-299.56897	1027.55933	41.79686				-520.46722	550.17499	316.95554	-353.46661	575.01105	-47.17321	-386.72867	68.09397	429.87958	-422.05087	67.00282	23.10009	
236	2.350							-422.81494	1610.23193	-39.76150	-355.36514	1059.07446	289.82971	-559.45514	1527.69214	257.56393	-293.44727	1544.72107	160.39740	-469.38876	1467.13196	108.67950	-399.62723	1568.20520	253.32288	-734.67883	1197.92297	304.70438				-835.68146	973.81616	108.06561	-73.18700	1505.09900	-86.29546	-578.83801	1028.41199	220.28467	-303.10925	1024.58459	34.31919				-522.81787	549.13049	312.21130	-356.78119	570.59290	-49.88208	-387.18417	68.50191	428.96106	-434.10638	62.66317	-2.95659	
